<svg width="139" height="317" viewBox="0 0 139 317" fill="none" xmlns="http://www.w3.org/2000/svg">
<path d="M-7.46954 171.766C6.3732 145.731 24.2204 125.015 41.8627 112.56C59.5312 100.087 76.8558 95.9834 89.7669 102.848C102.678 109.713 108.964 126.371 108.503 147.994C108.043 169.585 100.849 195.965 87.0059 221.999C73.1631 248.033 55.316 268.749 37.6736 281.204C20.0051 293.678 2.68053 297.781 -10.2306 290.916C-23.1417 284.051 -29.4276 267.394 -28.9666 245.771C-28.5064 224.18 -21.3123 197.8 -7.46954 171.766Z" stroke="#44FFA1"/>
<path d="M-43.4695 152.766C-29.6268 126.731 -11.7796 106.015 5.86268 93.5603C23.5312 81.0868 40.8558 76.9834 53.7669 83.8483C66.678 90.7133 72.9639 107.371 72.503 128.994C72.0427 150.585 64.8486 176.965 51.0059 202.999C37.1631 229.033 19.316 249.749 1.67363 262.204C-15.9949 274.678 -33.3195 278.781 -46.2306 271.916C-59.1417 265.051 -65.4276 248.394 -64.9666 226.771C-64.5064 205.18 -57.3123 178.8 -43.4695 152.766Z" stroke="#44FFA1"/>
<path opacity="0.75" d="M-77.5865 134.235C-63.7431 108.199 -45.9938 87.4303 -28.5098 74.8901C-10.9975 62.3296 6.10408 58.1153 18.767 64.8483C31.4299 71.5813 37.4992 88.1158 36.8788 109.658C36.2595 131.165 28.9664 157.494 15.123 183.529C1.27969 209.565 -16.4696 230.334 -33.9536 242.874C-51.4659 255.435 -68.5675 259.649 -81.2304 252.916C-93.8934 246.183 -99.9626 229.649 -99.3423 208.107C-98.7229 186.599 -91.4298 160.271 -77.5865 134.235Z" stroke="#44FFA1"/>
<path opacity="0.5" d="M-114.47 113.766C-100.627 87.7311 -82.7796 67.0154 -65.1373 54.5603C-47.4688 42.0868 -30.1442 37.9834 -17.2331 44.8483C-4.32203 51.7133 1.96388 68.3706 1.50295 89.9936C1.04271 111.585 -6.15141 137.965 -19.9941 163.999C-33.8369 190.033 -51.684 210.749 -69.3264 223.204C-86.9949 235.678 -104.319 239.781 -117.231 232.916C-130.142 226.051 -136.428 209.394 -135.967 187.771C-135.506 166.18 -128.312 139.8 -114.47 113.766Z" stroke="#44FFA1"/>
</svg>
