<svg width="57" height="181" viewBox="0 0 57 181" fill="none" xmlns="http://www.w3.org/2000/svg">
<path d="M78.476 103.127C91.2458 111.741 101.04 122.114 106.562 131.901C112.101 141.716 113.27 150.793 109.11 156.961C104.949 163.13 96.0956 165.446 84.9196 163.987C73.7768 162.533 60.4902 157.338 47.7203 148.725C34.9505 140.111 25.1563 129.738 19.6339 119.952C14.0951 110.136 12.9259 101.059 17.0866 94.8908C21.2473 88.7223 30.1007 86.4064 41.2767 87.8648C52.4195 89.3189 65.7061 94.5141 78.476 103.127Z" stroke="#44FFA1"/>
<path d="M90.4762 85.1275C103.246 93.7408 113.04 104.114 118.563 113.901C124.101 123.716 125.271 132.793 121.11 138.961C116.949 145.13 108.096 147.446 96.9199 145.987C85.777 144.533 72.4904 139.338 59.7206 130.725C46.9508 122.111 37.1566 111.738 31.6342 101.952C26.0954 92.1357 24.9261 83.0593 29.0868 76.8908C33.2475 70.7223 42.101 68.4064 53.2769 69.8648C64.4198 71.3189 77.7064 76.5141 90.4762 85.1275Z" stroke="#44FFA1"/>
<path opacity="0.75" d="M101.476 68.1275C114.246 76.7408 124.04 87.1138 129.563 96.9006C135.101 106.716 136.271 115.793 132.11 121.961C127.949 128.13 119.096 130.446 107.92 128.987C96.777 127.533 83.4904 122.338 70.7206 113.725C57.9508 105.111 48.1566 94.7382 42.6342 84.9515C37.0954 75.1357 35.9261 66.0593 40.0868 59.8908C44.2475 53.7223 53.101 51.4064 64.2769 52.8648C75.4198 54.3189 88.7064 59.5141 101.476 68.1275Z" stroke="#44FFA1"/>
<path opacity="0.5" d="M113.476 50.1275C126.246 58.7408 136.04 69.1138 141.562 78.9006C147.101 88.7164 148.27 97.7927 144.11 103.961C139.949 110.13 131.096 112.446 119.92 110.987C108.777 109.533 95.4902 104.338 82.7203 95.7246C69.9505 87.1112 60.1563 76.7382 54.6339 66.9515C49.0951 57.1357 47.9259 48.0593 52.0866 41.8908C56.2473 35.7223 65.1007 33.4064 76.2767 34.8648C87.4195 36.3189 100.706 41.5141 113.476 50.1275Z" stroke="#44FFA1"/>
<path opacity="0.25" d="M126.476 32.1275C139.246 40.7408 149.04 51.1138 154.563 60.9006C160.101 70.7164 161.271 79.7927 157.11 85.9612C152.949 92.1298 144.096 94.4457 132.92 92.9873C121.777 91.5331 108.49 86.3379 95.7206 77.7246C82.9508 69.1112 73.1566 58.7382 67.6342 48.9515C62.0954 39.1357 60.9261 30.0593 65.0868 23.8908C69.2475 17.7223 78.101 15.4064 89.2769 16.8648C100.42 18.3189 113.706 23.5141 126.476 32.1275Z" stroke="#44FFA1"/>
</svg>
